<svg xmlns="http://www.w3.org/2000/svg" xmlns:xlink="http://www.w3.org/1999/xlink" width="1080" zoomAndPan="magnify" viewBox="0 0 810 1012.49997" height="1350" preserveAspectRatio="xMidYMid meet" version="1.0"><defs><clipPath id="e2f526bd80"><path d="M 90.898438 210.816406 L 719.101562 210.816406 L 719.101562 839.015625 L 90.898438 839.015625 Z M 90.898438 210.816406 " clip-rule="nonzero"/></clipPath><clipPath id="d1bb2334dc"><path d="M 405 210.816406 C 231.527344 210.816406 90.898438 351.445312 90.898438 524.917969 C 90.898438 698.390625 231.527344 839.015625 405 839.015625 C 578.472656 839.015625 719.101562 698.390625 719.101562 524.917969 C 719.101562 351.445312 578.472656 210.816406 405 210.816406 Z M 405 210.816406 " clip-rule="nonzero"/></clipPath><clipPath id="9801295095"><path d="M 0.898438 0.816406 L 629.101562 0.816406 L 629.101562 629.015625 L 0.898438 629.015625 Z M 0.898438 0.816406 " clip-rule="nonzero"/></clipPath><clipPath id="e715059603"><path d="M 315 0.816406 C 141.527344 0.816406 0.898438 141.445312 0.898438 314.917969 C 0.898438 488.390625 141.527344 629.015625 315 629.015625 C 488.472656 629.015625 629.101562 488.390625 629.101562 314.917969 C 629.101562 141.445312 488.472656 0.816406 315 0.816406 Z M 315 0.816406 " clip-rule="nonzero"/></clipPath><clipPath id="53699342b3"><rect x="0" width="630" y="0" height="630"/></clipPath></defs><g clip-path="url(#e2f526bd80)"><g clip-path="url(#d1bb2334dc)"><g transform="matrix(1, 0, 0, 1, 90, 210)"><g clip-path="url(#53699342b3)"><g clip-path="url(#9801295095)"><g clip-path="url(#e715059603)"><path fill="#ffa100" d="M 0.898438 0.816406 L 629.101562 0.816406 L 629.101562 629.015625 L 0.898438 629.015625 Z M 0.898438 0.816406 " fill-opacity="1" fill-rule="nonzero"/></g></g></g></g></g></g></svg>