<svg xmlns="http://www.w3.org/2000/svg" xmlns:xlink="http://www.w3.org/1999/xlink" width="1080" zoomAndPan="magnify" viewBox="0 0 810 1012.49997" height="1350" preserveAspectRatio="xMidYMid meet" version="1.0"><defs><clipPath id="445cb80554"><path d="M 14.628906 100.652344 L 795.742188 100.652344 L 795.742188 957.480469 L 14.628906 957.480469 Z M 14.628906 100.652344 " clip-rule="nonzero"/></clipPath></defs><g clip-path="url(#445cb80554)"><path fill="#012abd" d="M 679.769531 539.503906 L 681.425781 542.402344 L 682.878906 542.402344 L 683.394531 540.746094 L 683.1875 538.570312 L 685.464844 539.089844 L 687.539062 541.988281 L 687.539062 544.164062 L 690.644531 544.164062 L 690.644531 541.46875 L 692.609375 540.226562 L 692.609375 537.847656 L 694.0625 537.121094 L 695.304688 537.121094 L 696.546875 538.777344 L 697.476562 537.121094 L 697.476562 531.53125 L 696.546875 528.835938 L 695.820312 522.105469 L 695.820312 517.238281 L 694.371094 517.03125 L 693.648438 514.339844 L 697.476562 514.339844 L 698.929688 514.132812 L 700.378906 512.164062 C 700.378906 512.164062 701.308594 507.089844 701.621094 506.367188 C 701.828125 505.640625 701.101562 501.292969 701.621094 500.566406 C 702.136719 499.84375 701.621094 495.492188 701.621094 495.492188 L 700.378906 489.902344 L 697.996094 486.484375 L 697.996094 484.101562 L 696.546875 482.757812 L 697.0625 480.996094 C 697.0625 480.996094 697.269531 479.753906 697.996094 479.339844 C 698.722656 478.820312 701.828125 482.757812 701.828125 482.757812 L 702.757812 482.757812 L 703.691406 480.789062 L 706.382812 479.855469 C 706.382812 479.855469 708.039062 480.066406 708.039062 481.101562 C 708.039062 482.03125 708.039062 482.859375 708.039062 482.859375 L 709.695312 482.859375 L 711.664062 481.308594 L 714.046875 481.308594 C 714.046875 481.308594 715.703125 481.929688 715.703125 482.859375 C 715.703125 483.6875 717.359375 485.449219 717.359375 485.449219 L 720.257812 482.859375 L 721.191406 477.476562 C 721.191406 477.476562 721.917969 475.09375 722.433594 474.058594 C 722.953125 473.125 724.402344 470.953125 724.402344 470.953125 L 724.402344 468.570312 L 725.644531 465.464844 L 725.644531 464.117188 L 727.300781 463.910156 L 728.957031 462.253906 L 728.957031 460.804688 L 730.199219 458.835938 L 730.199219 456.660156 L 731.855469 455.003906 L 733.308594 452.105469 L 733.308594 449 L 730.925781 446.617188 C 730.925781 446.617188 728.957031 446.410156 729.269531 445.375 C 729.476562 444.441406 730.199219 442.992188 730.199219 442.992188 L 730.40625 438.4375 L 733.308594 437.503906 L 734.550781 435.847656 L 735.480469 432.949219 L 737.136719 430.566406 L 739.519531 428.910156 L 739.519531 426.527344 C 739.519531 426.527344 739.519531 425.804688 739.519531 425.078125 C 739.519531 424.355469 740.039062 423.113281 740.761719 422.386719 C 741.488281 421.660156 742.210938 420.730469 742.210938 420.730469 L 740.761719 417.832031 L 740.039062 413.6875 L 739.3125 410.582031 L 740.554688 406.441406 L 742.210938 403.746094 C 742.210938 403.746094 742.730469 403.230469 743.453125 403.023438 C 744.179688 402.816406 746.5625 402.296875 746.5625 402.296875 L 750.1875 397.742188 C 750.1875 397.742188 751.84375 396.292969 752.566406 396.292969 C 753.292969 396.292969 755.464844 393.910156 755.464844 393.910156 L 756.710938 391.734375 L 759.089844 391.527344 C 759.089844 391.527344 759.609375 391.527344 760.539062 390.597656 C 761.472656 389.664062 761.992188 387.695312 761.992188 387.695312 C 761.992188 387.695312 763.957031 386.039062 764.371094 385.316406 C 764.890625 384.589844 767.0625 382.625 767.789062 382.625 C 768.515625 382.625 773.589844 381.378906 773.589844 381.378906 L 775.96875 380.65625 L 775.96875 379.207031 L 778.144531 379.414062 L 780.113281 378.894531 L 782.492188 378.6875 L 783.941406 380.136719 L 783.941406 383.96875 L 785.910156 383.761719 L 788.085938 385.003906 L 790.050781 385.730469 L 791.296875 384.796875 L 791.296875 382.625 L 788.1875 378.273438 L 785.082031 376.097656 L 784.355469 370.820312 L 784.875 369.160156 L 786.84375 367.710938 L 790.46875 362.84375 L 793.882812 361.1875 L 795.332031 361.1875 L 795.332031 356.839844 C 794.402344 354.871094 793.160156 352.488281 793.160156 352.488281 L 790.050781 348.140625 L 786.945312 347.933594 L 784.980469 348.867188 L 782.597656 348.660156 L 780.941406 348.660156 L 778.246094 348.453125 L 777.003906 347.207031 L 775.347656 347.207031 L 772.449219 348.140625 C 772.449219 348.140625 771.722656 347.414062 771 348.347656 C 770.273438 349.28125 770.480469 350.316406 770.480469 350.316406 L 769.757812 351.765625 L 766.132812 350.316406 L 766.855469 347.207031 L 767.582031 344.828125 L 768.308594 342.652344 L 769.238281 340.683594 L 770.6875 339.441406 L 771.621094 338.199219 L 772.863281 336.023438 L 769.238281 334.367188 L 767.789062 330.953125 L 763.957031 331.675781 L 763.441406 334.574219 L 760.746094 335.507812 L 760.746094 331.882812 L 758.367188 330.433594 L 759.296875 329.191406 L 760.539062 327.742188 L 761.785156 325.566406 L 764.164062 325.566406 L 761.058594 323.597656 L 756.917969 318.730469 L 751.636719 322.148438 L 745.113281 326.292969 L 744.179688 329.398438 L 742.730469 331.78125 L 742.730469 333.230469 L 737.449219 333.230469 L 734.757812 331.054688 L 732.789062 331.054688 L 728.441406 331.261719 L 725.332031 329.8125 L 722.226562 327.429688 L 720.570312 327.222656 L 718.914062 329.398438 C 718.914062 329.398438 717.980469 330.121094 716.53125 330.640625 C 715.082031 331.160156 713.632812 331.160156 713.632812 331.160156 L 706.175781 340.582031 L 702.34375 344 L 698.203125 346.898438 L 693.855469 347.625 C 693.855469 347.625 691.886719 349.589844 690.746094 349.589844 C 689.609375 349.589844 685.878906 350.109375 685.878906 350.109375 L 685.15625 353.214844 L 683.5 357.355469 C 683.5 357.355469 684.429688 358.082031 682.257812 359.53125 C 680.082031 360.980469 675.007812 363.15625 675.007812 363.15625 L 673.351562 365.332031 L 674.28125 367.503906 L 673.558594 371.128906 L 671.589844 372.578125 L 669.210938 374.546875 L 665.378906 375.269531 L 662.269531 375.996094 L 660.304688 376.515625 L 657.402344 378.171875 C 657.402344 378.171875 655.023438 378.6875 654.296875 378.6875 C 653.574219 378.6875 650.671875 378.894531 650.671875 378.894531 L 647.773438 378.6875 L 646.84375 383.96875 L 647.566406 385.625 L 650.464844 387.59375 L 653.882812 387.386719 L 655.851562 386.660156 L 657.820312 386.144531 L 660.511719 388.320312 L 661.234375 391.011719 L 659.785156 392.976562 L 657.613281 394.945312 L 658.855469 396.394531 L 661.027344 399.085938 L 661.753906 402.503906 C 661.753906 402.503906 662.683594 404.679688 661.234375 404.679688 C 659.785156 404.679688 656.886719 403.953125 656.886719 403.953125 L 655.953125 406.128906 L 653.574219 404.679688 L 652.640625 406.335938 L 649.742188 406.855469 C 649.742188 406.855469 648.292969 407.0625 647.359375 407.371094 C 646.429688 407.683594 644.976562 405.714844 644.976562 405.714844 L 643.527344 405.921875 L 641.5625 407.578125 C 641.5625 407.578125 639.179688 407.578125 638.453125 407.578125 C 637.730469 407.578125 635.347656 407.785156 635.347656 407.785156 L 628.824219 407.785156 L 623.230469 407.578125 L 619.609375 404.679688 L 613.292969 403.746094 L 612.566406 406.441406 C 612.566406 406.441406 611.324219 407.164062 610.390625 407.371094 C 609.460938 407.578125 606.5625 408.304688 606.5625 408.304688 L 602.9375 409.546875 L 600.035156 410.476562 L 597.65625 410.476562 L 594.238281 410.269531 L 591.546875 410.476562 L 592.789062 408.511719 L 590.097656 408.71875 L 588.855469 407.785156 C 588.855469 407.785156 587.402344 405.820312 586.679688 406.128906 C 585.953125 406.335938 584.503906 407.371094 584.503906 407.371094 L 580.671875 408.097656 L 579.429688 406.128906 L 575.289062 404.160156 L 574.769531 402.710938 L 574.046875 400.539062 L 572.804688 398.363281 L 573.320312 395.980469 L 574.046875 394.015625 L 574.769531 392.769531 L 574.046875 390.804688 L 572.597656 388.835938 L 572.078125 386.660156 C 572.078125 386.660156 571.871094 385.210938 572.285156 384.28125 C 572.804688 383.347656 573.527344 381.585938 573.527344 381.585938 L 573.734375 378.894531 L 574.253906 376.203125 L 573.734375 372.785156 L 572.492188 370.820312 L 568.351562 370.09375 L 566.695312 369.367188 L 564.519531 369.886719 L 561.828125 371.542969 L 559.859375 371.75 L 558.925781 372.992188 L 553.644531 373.511719 L 553.644531 374.960938 L 554.886719 377.34375 L 554.886719 380.035156 L 554.371094 383.140625 L 551.265625 386.558594 L 551.058594 390.699219 L 550.851562 395.980469 L 551.367188 400.847656 L 553.335938 400.125 L 553.542969 402.296875 L 554.472656 406.441406 L 557.167969 410.269531 C 557.167969 410.269531 556.441406 410.269531 555.925781 411.929688 C 555.40625 413.585938 554.472656 416.070312 554.472656 416.070312 L 551.78125 416.589844 L 550.539062 421.144531 L 546.707031 417.519531 L 545.984375 418.96875 L 541.632812 419.695312 L 538.527344 420.625 L 534.695312 419.695312 L 533.039062 421.867188 C 531.589844 422.386719 530.65625 420.9375 530.65625 420.9375 C 528.691406 420.210938 526.824219 419.695312 526.824219 419.695312 L 526.617188 416.277344 L 525.167969 416.070312 L 524.238281 417.3125 L 522.996094 418.039062 L 521.753906 418.96875 L 520.09375 419.175781 L 518.128906 419.382812 L 516.679688 420.832031 L 515.019531 418.140625 L 508.703125 415.035156 L 505.804688 414.308594 L 504.355469 414.828125 L 500.214844 414.308594 L 497.3125 414.515625 L 495.347656 415.757812 L 494.105469 416.484375 C 494.105469 416.484375 494.828125 413.792969 490.480469 414.101562 L 491.203125 407.785156 L 487.0625 407.785156 L 482.921875 410.894531 L 479.503906 411.617188 L 477.535156 407.785156 L 474.117188 407.578125 L 472.667969 405.40625 L 468.527344 404.160156 L 464.179688 403.230469 C 464.179688 403.230469 461.277344 403.953125 462.933594 400.125 C 464.59375 396.292969 462.726562 393.808594 462.726562 393.808594 L 457.136719 393.082031 L 454.03125 391.839844 L 452.789062 389.871094 L 450.40625 388.941406 L 448.230469 388.007812 L 448.230469 390.390625 L 444.8125 390.390625 L 440.257812 391.839844 L 437.359375 390.597656 L 433.007812 389.664062 L 429.902344 389.664062 L 428.96875 391.320312 L 426.070312 394.222656 L 423.378906 390.078125 L 421.410156 389.871094 L 417.269531 388.628906 L 415.09375 387.90625 L 411.675781 387.695312 L 412.402344 384.796875 L 410.953125 381.691406 L 408.054688 381.484375 L 405.359375 382.210938 L 404.117188 382 L 400.285156 380.035156 L 399.25 379.828125 L 393.453125 375.996094 L 391.484375 375.476562 C 391.484375 375.476562 390.554688 377.652344 389.828125 377.652344 C 389.105469 377.652344 387.652344 375.476562 386.929688 375.476562 C 386.203125 375.476562 381.648438 373.097656 381.648438 373.097656 L 377.816406 369.679688 L 376.160156 368.023438 L 373.46875 367.816406 L 373.984375 362.636719 L 371.085938 361.394531 L 368.703125 360.464844 L 366.738281 359.222656 L 363.320312 359.222656 L 364.25 357.5625 L 361.871094 357.355469 L 359.488281 354.976562 L 357.105469 352.800781 L 355.347656 352.28125 L 354.621094 355.390625 L 352.964844 353.734375 L 349.859375 353.214844 L 348.199219 349.796875 L 345.507812 348.347656 L 348.40625 343.066406 L 351.101562 338.199219 L 352.757812 335.816406 L 354.726562 335.609375 L 353.066406 330.328125 C 353.066406 330.328125 352.859375 329.605469 353.066406 328.363281 C 353.273438 327.121094 351.824219 327.429688 353.273438 327.121094 C 354.726562 326.914062 355.96875 327.121094 355.96875 326.394531 C 355.96875 325.671875 355.96875 319.148438 355.96875 319.148438 L 358.867188 318.421875 C 358.867188 318.421875 361.042969 316.246094 361.042969 315.523438 C 361.042969 314.796875 361.972656 313.347656 361.972656 313.347656 L 364.664062 313.140625 L 366.839844 309.515625 L 368.289062 308.792969 L 370.257812 308.585938 L 370.257812 306.71875 L 367.566406 304.753906 L 364.871094 304.027344 L 362.492188 299.679688 L 360.523438 299.160156 C 359.074219 298.644531 355.96875 296.78125 355.96875 296.78125 L 352.136719 296.574219 L 350.6875 294.914062 L 350.167969 291.292969 C 350.167969 291.292969 348.511719 290.046875 347.992188 289.324219 C 347.476562 288.597656 345.09375 288.082031 345.09375 288.082031 L 341.675781 284.664062 L 339.296875 283.007812 C 339.296875 283.007812 338.570312 283.214844 337.640625 283.214844 C 336.707031 283.214844 334.945312 283.730469 334.945312 283.730469 L 332.253906 283.007812 L 331.011719 281.039062 L 329.042969 279.382812 L 327.386719 276.484375 L 325.730469 275.964844 L 326.25 271.824219 L 324.28125 271.824219 L 320.863281 266.542969 L 321.070312 269.441406 L 319.621094 270.890625 L 318.171875 272.859375 L 317.03125 272.859375 L 316.515625 269.753906 L 314.546875 269.027344 L 313.820312 266.128906 L 315.066406 263.230469 L 315.789062 260.328125 L 314.859375 257.949219 L 313.613281 255.773438 L 312.890625 253.804688 L 312.371094 251.113281 L 310.199219 250.390625 L 310.714844 245.832031 L 307.816406 243.65625 L 309.058594 242 L 309.058594 237.652344 L 304.917969 236.71875 L 306.988281 235.375 L 309.472656 232.886719 L 316.308594 232.886719 L 316.308594 236.824219 L 319.207031 240.757812 L 325.625 236.824219 L 331.011719 236.824219 L 335.464844 230.921875 L 335.464844 226.054688 L 330.597656 222.121094 L 332.046875 216.21875 C 332.046875 216.21875 328.628906 213.835938 327.179688 213.835938 C 325.730469 213.835938 321.175781 210.730469 321.175781 210.730469 L 320.96875 202.753906 L 325.316406 201.511719 L 323.867188 200.269531 L 321.898438 194.472656 L 321.277344 191.15625 L 335.464844 191.15625 L 335.464844 186.289062 L 337.742188 182.976562 L 338.261719 179.457031 L 343.335938 179.457031 L 343.335938 174.175781 L 349.753906 172.207031 L 353.171875 165.375 L 353.171875 159.472656 L 356.070312 154.605469 L 356.070312 150.667969 L 353.585938 146.214844 L 349.652344 143.730469 L 348.71875 140.832031 L 336.914062 140.832031 L 335.980469 138.347656 L 331.527344 138.347656 L 326.664062 140.3125 L 314.445312 140.3125 C 314.445312 140.3125 312.476562 140.832031 311.027344 141.246094 C 309.578125 141.765625 304.605469 144.144531 304.605469 144.144531 L 298.703125 146.628906 L 292.285156 147.148438 L 286.382812 148.597656 L 281.515625 147.667969 L 286.898438 143.730469 L 281.515625 140.3125 L 273.125 135.863281 L 267.328125 127.578125 L 263.394531 127.578125 C 263.394531 127.578125 263.394531 125.09375 261.425781 123.640625 C 259.457031 122.191406 254.589844 119.707031 254.589844 119.707031 L 250.136719 116.808594 L 250.136719 112.875 L 247.238281 110.386719 L 243.820312 107.902344 L 239.886719 107.902344 L 239.886719 102.621094 L 233.464844 102.621094 L 230.050781 100.652344 L 213.378906 100.652344 L 207.992188 102.621094 L 200.125 103.140625 L 200.125 106.554688 L 197.636719 108.523438 L 191.734375 106.039062 L 185.832031 105.105469 L 179 111.007812 L 174.132812 113.910156 L 172.164062 116.394531 L 166.78125 120.328125 L 166.78125 127.578125 L 172.164062 129.542969 L 180.550781 129.027344 L 182.519531 135.863281 L 186.972656 139.277344 L 196.292969 141.246094 L 195.359375 143.730469 L 193.390625 148.183594 L 201.261719 151.601562 L 202.710938 154.085938 L 199.8125 160.507812 L 192.460938 162.472656 L 191.527344 167.339844 L 185.625 167.859375 L 186.558594 172.726562 L 186.558594 187.949219 L 187.074219 197.785156 L 186.144531 206.171875 C 186.144531 206.171875 183.246094 209.070312 186.144531 211.039062 C 189.042969 213.007812 192.5625 214.972656 192.5625 214.972656 L 198.464844 216.941406 L 203.332031 219.425781 L 203.851562 222.328125 L 208.304688 222.84375 L 212.757812 220.875 L 211.824219 228.746094 L 216.277344 230.714844 L 219.695312 232.164062 L 224.5625 234.132812 L 229.945312 235.0625 L 227.976562 240.964844 L 225.078125 244.902344 L 215.757812 244.902344 L 213.585938 247.695312 C 213.585938 247.695312 209.960938 248.9375 207.992188 250.90625 C 206.027344 252.875 206.027344 252.875 206.027344 252.875 L 208.40625 258.878906 L 206.027344 261.261719 L 209.648438 261.261719 C 209.648438 261.261719 206.441406 263.644531 206.441406 265.714844 C 206.441406 267.683594 206.027344 270.167969 206.027344 270.167969 L 209.234375 270.167969 C 209.234375 270.167969 210.890625 273.171875 209.648438 273.171875 C 208.40625 273.171875 208.40625 273.171875 208.40625 273.171875 L 204.265625 275.757812 L 199.398438 278.96875 L 198.15625 281.867188 L 194.945312 284.769531 C 192.667969 286.734375 191.113281 288.597656 191.113281 288.597656 L 187.902344 288.597656 L 190.183594 290.566406 L 187.902344 290.566406 L 188.835938 293.777344 L 187.902344 295.742188 L 187.902344 298.644531 L 184.382812 301.230469 L 182.417969 303.820312 C 182.417969 303.820312 179.828125 303.199219 178.273438 303.820312 C 176.617188 304.441406 174.753906 301.855469 173.820312 303.820312 C 172.890625 305.789062 172.164062 308.6875 172.164062 308.6875 L 167.402344 321.527344 C 167.402344 321.527344 161.914062 325.980469 161.292969 327.949219 C 160.671875 329.914062 158.703125 331.78125 156.839844 332.816406 C 154.871094 333.746094 148.140625 336.957031 148.140625 336.957031 C 148.140625 336.957031 140.789062 340.476562 140.476562 342.136719 C 140.167969 343.792969 140.167969 343.792969 140.167969 343.792969 C 140.167969 343.792969 139.546875 349.902344 138.511719 349.902344 C 137.476562 349.902344 132.402344 353.421875 132.402344 353.421875 C 132.402344 353.421875 129.8125 360.464844 127.949219 361.5 C 125.980469 362.429688 122.148438 360.257812 117.074219 361.5 C 111.898438 362.742188 108.066406 363.15625 106.511719 364.085938 C 104.855469 365.019531 98.851562 367.917969 97.816406 364.085938 C 96.882812 360.257812 96.15625 357.046875 96.15625 357.046875 C 96.15625 357.046875 93.570312 352.179688 88.082031 354.769531 C 82.59375 357.355469 82.902344 359.945312 82.59375 360.878906 C 82.28125 361.808594 78.449219 366.054688 78.449219 366.054688 C 78.449219 366.054688 77.207031 368.953125 73.585938 371.542969 C 70.0625 374.132812 67.164062 373.820312 65.507812 377.03125 C 63.851562 380.242188 65.195312 381.171875 63.851562 383.140625 C 62.609375 385.109375 58.671875 383.453125 61.882812 387.28125 C 65.09375 391.113281 66.75 391.113281 68.304688 392.460938 C 69.960938 393.703125 71.824219 396.292969 71.824219 396.292969 C 71.824219 396.292969 78.242188 393.703125 79.175781 397.949219 C 80.109375 402.089844 80.832031 401.46875 79.488281 404.367188 C 78.242188 407.269531 76.585938 408.511719 76.585938 408.511719 L 76.484375 414.414062 L 78.140625 416.378906 L 78.863281 418.761719 C 78.863281 418.761719 77.621094 421.453125 80.316406 422.179688 C 83.007812 422.90625 90.671875 422.90625 90.671875 423.628906 C 90.671875 424.355469 89.011719 429.222656 90.152344 431.085938 C 91.394531 433.050781 95.019531 440.507812 95.742188 441.957031 C 96.46875 443.40625 102.476562 453.039062 102.476562 453.039062 C 102.476562 453.039062 104.441406 454.695312 102.476562 454.695312 C 100.507812 454.695312 99.367188 455.9375 99.367188 455.9375 C 99.367188 455.9375 100.609375 457.386719 100.300781 458.628906 C 100.09375 459.871094 99.058594 460.078125 98.851562 460.804688 C 98.644531 461.527344 99.574219 461.734375 99.574219 461.734375 L 102.992188 461.734375 L 99.886719 464.636719 C 99.886719 464.636719 96.46875 461.941406 96.054688 464.636719 C 95.535156 467.328125 91.707031 467.742188 91.707031 467.742188 L 87.148438 465.566406 L 87.148438 461.011719 L 80.417969 461.527344 C 80.417969 461.527344 79.902344 462.773438 79.175781 462.773438 L 75.757812 462.773438 C 74.828125 462.773438 70.476562 466.1875 70.476562 466.1875 L 63.023438 466.1875 L 58.878906 461.320312 L 52.5625 461.113281 L 50.90625 461.839844 L 49.457031 461.320312 L 46.765625 461.320312 L 44.589844 461.527344 C 44.589844 461.527344 43.863281 459.871094 42.207031 460.804688 C 40.550781 461.734375 39.828125 458.835938 39.828125 458.835938 L 37.652344 461.21875 L 37.652344 457.59375 L 35.996094 457.59375 L 33.613281 467.742188 L 21.914062 467.742188 L 19.738281 469.398438 L 17.769531 469.398438 L 15.800781 473.230469 L 14.664062 475.199219 L 14.664062 477.890625 C 14.664062 477.890625 18.496094 478.097656 19.53125 477.890625 C 20.460938 477.683594 20.773438 474.265625 21.703125 474.058594 C 22.636719 473.851562 25.535156 474.265625 25.535156 474.265625 L 30.816406 471.367188 L 29.886719 473.746094 L 27.191406 475.714844 L 23.050781 477.992188 L 22.535156 480.582031 L 21.914062 482.652344 C 21.914062 482.652344 25.742188 481.410156 23.363281 484.828125 C 23.363281 484.828125 26.054688 482.859375 26.054688 484.828125 C 26.054688 486.796875 24.8125 488.453125 24.8125 488.453125 L 27.710938 486.796875 L 27.710938 491.871094 L 28.644531 494.25 C 28.644531 494.25 31.023438 496.21875 32.472656 496.945312 C 33.925781 497.667969 41.378906 501.808594 42.105469 503.46875 C 42.828125 505.125 45.003906 503.46875 45.9375 504.710938 C 46.867188 505.953125 47.59375 507.816406 47.59375 507.816406 C 47.59375 507.816406 49.25 505.640625 51.425781 506.160156 C 53.597656 506.675781 57.222656 508.332031 57.949219 507.816406 C 58.671875 507.296875 61.777344 506.160156 61.777344 506.160156 L 64.472656 505.433594 L 65.714844 503.261719 L 70.269531 503.261719 L 69.753906 501.914062 L 69.234375 500.566406 L 70.476562 498.910156 L 72.652344 502.328125 L 74.621094 497.980469 L 77 498.910156 L 78.96875 499.636719 L 78.035156 503.46875 L 75.34375 506.367188 L 75.34375 507.917969 L 72.238281 510.921875 L 70.0625 513.097656 L 69.855469 515.273438 L 60.742188 515.273438 L 62.402344 516.722656 L 58.570312 519.828125 L 57.121094 517.859375 L 54.738281 518.378906 L 54.738281 519.828125 L 52.5625 520.761719 L 51.320312 519.101562 L 47.902344 519.621094 L 47.902344 520.863281 L 45.523438 519.933594 L 41.898438 520.863281 L 39.722656 522.3125 L 39.207031 519.933594 L 40.863281 517.550781 L 37.03125 517.757812 L 35.789062 517.238281 L 37.753906 515.066406 L 35.582031 514.546875 C 35.582031 514.546875 34.132812 515.789062 33.925781 516.515625 C 33.71875 517.238281 31.75 519.621094 33.71875 522.3125 C 35.683594 525.003906 50.386719 543.957031 50.386719 543.957031 L 54.011719 547.0625 L 55.460938 547.0625 L 55.980469 551.824219 L 69.441406 564.148438 L 73.273438 567.566406 L 79.589844 570.464844 L 91.1875 570.464844 L 95.742188 568.496094 L 98.4375 568.496094 L 101.542969 566.324219 L 102.992188 565.390625 L 105.683594 564.664062 C 105.683594 564.664062 107.339844 564.871094 108.066406 564.871094 C 108.792969 564.871094 110.964844 563.421875 110.964844 563.421875 C 110.964844 563.421875 114.382812 562.699219 115.316406 561.972656 C 116.246094 561.25 117.488281 559.796875 117.488281 559.796875 L 118.9375 559.796875 L 119.457031 557.417969 L 123.082031 553.792969 C 123.082031 553.792969 125.046875 551.824219 125.046875 550.894531 C 125.046875 549.960938 125.046875 547.0625 125.046875 547.0625 L 126.707031 545.820312 L 125.773438 540.953125 L 125.257812 538.570312 L 128.15625 534.222656 L 125.980469 532.980469 L 127.222656 530.804688 L 129.398438 531.53125 L 130.847656 531.53125 L 132.296875 530.597656 L 130.121094 529.664062 L 132.089844 528.214844 L 134.78125 528.734375 C 134.78125 528.734375 138.925781 531.113281 139.648438 531.113281 C 140.375 531.113281 144.929688 529.664062 144.929688 529.664062 L 142.238281 532.566406 L 139.132812 532.773438 L 134.988281 530.804688 L 132.296875 534.636719 L 133.953125 535.359375 L 133.4375 537.019531 L 133.230469 538.984375 L 135.402344 539.503906 L 138.304688 538.261719 L 140.476562 538.777344 L 139.234375 540.746094 L 136.855469 540.746094 L 133.4375 541.261719 L 132.917969 544.886719 L 132.195312 547.0625 L 137.269531 548.304688 L 132.917969 549.238281 L 133.4375 551.203125 L 135.402344 550.480469 L 138.820312 549.03125 L 136.128906 553.171875 L 134.472656 553.894531 L 134.265625 556.070312 L 134.058594 557.519531 L 133.023438 558.554688 L 133.644531 560.109375 L 133.4375 562.179688 L 136.335938 562.800781 L 134.265625 564.5625 L 138.097656 564.5625 L 135.816406 565.910156 L 136.230469 568.394531 L 139.132812 568.394531 L 139.339844 569.53125 L 137.269531 570.464844 L 137.0625 571.8125 L 137.785156 572.949219 L 140.269531 572.949219 L 139.855469 574.710938 L 137.890625 574.710938 L 136.957031 580.09375 L 136.335938 581.855469 L 136.542969 582.785156 L 135.921875 583.925781 L 134.78125 584.859375 L 133.644531 587.34375 L 131.675781 588.273438 L 131.261719 589.828125 L 131.988281 590.96875 L 130.433594 591.691406 L 129.707031 593.660156 L 131.261719 596.765625 L 128.984375 595.628906 L 128.570312 596.765625 C 128.570312 596.765625 130.328125 597.492188 130.328125 598.113281 C 130.328125 598.734375 128.777344 600.078125 128.777344 600.078125 L 128.777344 601.425781 L 128.570312 602.566406 L 129.191406 603.496094 L 129.191406 604.84375 C 129.191406 604.84375 128.984375 605.464844 128.570312 606.191406 C 128.15625 606.914062 127.949219 608.46875 127.949219 608.46875 L 129.5 608.46875 L 130.640625 607.328125 L 132.195312 608.46875 L 130.433594 609.605469 L 128.878906 610.953125 L 129.605469 612.09375 L 129.605469 614.164062 L 133.230469 614.886719 L 129.191406 616.234375 L 129.914062 620.480469 C 129.914062 620.480469 131.46875 621.617188 131.988281 621.617188 C 132.609375 621.617188 133.953125 621.617188 133.953125 621.617188 L 132.609375 624.3125 L 131.261719 627.210938 L 134.160156 628.347656 L 134.367188 629.488281 C 134.367188 629.488281 133.746094 629.28125 133.023438 629.488281 C 132.296875 629.695312 131.261719 629.488281 131.261719 629.488281 L 130.121094 629.59375 C 130.121094 629.59375 129.914062 631.042969 129.914062 631.972656 C 129.914062 632.90625 131.261719 635.804688 131.261719 635.804688 L 131.882812 637.566406 L 130.328125 637.566406 L 130.742188 642.019531 L 132.089844 642.019531 L 131.675781 644.503906 L 134.160156 644.503906 L 133.746094 645.847656 L 130.640625 645.847656 L 130.226562 646.988281 L 132.195312 646.988281 L 131.78125 649.679688 L 132.195312 651.75 L 132.402344 653.511719 L 133.539062 653.511719 L 132.402344 654.859375 L 132.402344 656.929688 L 134.367188 658.691406 L 134.78125 660.449219 L 134.367188 664.695312 L 136.648438 665.421875 L 134.886719 666.765625 L 136.230469 669.667969 L 136.023438 671.425781 L 134.886719 673.703125 L 136.855469 673.703125 L 136.230469 674.84375 L 135.507812 675.984375 L 136.648438 677.328125 L 137.578125 677.328125 L 136.230469 678.882812 L 135.609375 679.8125 L 136.542969 680.539062 L 136.75 682.09375 L 135.816406 682.09375 L 136.023438 683.644531 L 137.578125 683.644531 L 137.578125 684.785156 L 136.023438 684.785156 L 136.957031 686.753906 L 136.542969 695.96875 L 137.890625 697.3125 L 137.683594 701.972656 L 138.820312 704.667969 L 138.40625 707.773438 L 139.753906 709.328125 L 138.199219 711.605469 L 139.546875 712.949219 L 141.304688 714.296875 L 143.273438 720.09375 L 146.171875 726.617188 L 147.726562 728.378906 L 149.074219 728.378906 L 147.105469 730.140625 L 150.210938 733.246094 L 151.144531 735.214844 C 151.144531 735.214844 151.558594 737.90625 151.144531 738.527344 C 150.730469 739.148438 150.730469 739.148438 150.730469 739.148438 L 154.042969 745.363281 L 155.597656 747.433594 L 153.523438 748.363281 C 153.523438 748.363281 151.765625 748.984375 152.386719 749.296875 C 153.007812 749.710938 154.664062 751.265625 154.664062 751.265625 L 156.425781 750.332031 L 157.148438 752.300781 L 159.21875 752.300781 L 160.359375 755.40625 L 160.980469 757.890625 L 162.949219 759.238281 L 162.222656 760.792969 L 163.15625 763.484375 L 164.085938 765.035156 L 164.5 767.109375 L 164.5 768.867188 L 163.570312 770.835938 C 163.570312 770.835938 167.609375 774.875 168.230469 776.632812 C 168.851562 778.394531 168.023438 781.8125 168.023438 781.8125 L 170.300781 781.8125 C 170.300781 781.8125 170.921875 783.15625 170.300781 783.15625 C 169.679688 783.15625 169.679688 783.15625 169.679688 783.15625 C 169.679688 783.15625 169.472656 785.125 169.472656 785.644531 C 169.472656 786.160156 169.886719 788.335938 169.886719 788.335938 L 169.472656 790.097656 L 167.503906 791.441406 L 169.265625 792.789062 L 171.335938 796.828125 L 170.921875 804.179688 L 172.0625 804.179688 L 172.683594 805.316406 C 172.683594 805.316406 173.40625 808.839844 173.613281 809.355469 C 173.820312 809.976562 175.890625 816.707031 175.890625 816.707031 L 177.859375 820.230469 L 180.550781 831.621094 L 181.484375 835.140625 L 183.96875 836.074219 L 185.109375 837.417969 L 186.660156 837.417969 L 185.109375 839.179688 L 187.074219 841.25 L 189.769531 843.21875 L 191.320312 844.976562 L 193.082031 846.117188 L 193.703125 849.636719 C 193.703125 849.636719 194.117188 850.570312 194.117188 851.605469 C 194.117188 852.539062 194.117188 853.675781 194.117188 853.675781 L 195.257812 853.675781 L 197.535156 856.78125 L 198.464844 856.78125 L 198.464844 861.441406 L 200.539062 861.441406 L 198.570312 863.203125 L 201.054688 868.378906 L 201.46875 872.210938 L 202.089844 874.695312 L 202.402344 875.941406 L 203.539062 874.386719 L 204.886719 875.941406 L 204.265625 877.285156 L 202.710938 878.011719 L 202.710938 879.5625 L 204.058594 881.53125 L 206.335938 883.085938 L 206.335938 885.363281 C 206.335938 885.363281 206.957031 888.46875 206.957031 889.195312 C 206.957031 889.917969 208.71875 892.09375 208.71875 892.09375 L 209.339844 890.746094 L 210.890625 892.09375 L 210.476562 893.855469 L 208.925781 893.855469 L 209.339844 896.132812 C 209.339844 896.132812 208.71875 897.894531 209.960938 898.203125 C 211.097656 898.617188 212.859375 900.273438 212.859375 900.273438 L 214.207031 902.242188 L 214 904.933594 L 214.207031 907.210938 L 214.621094 908.144531 L 215.242188 911.457031 L 216.792969 911.457031 L 217.726562 912.804688 L 216.171875 912.804688 L 213.273438 912.078125 L 212.550781 907.210938 L 212.136719 903.378906 L 211.203125 900.894531 L 211.410156 911.664062 L 212.34375 915.910156 L 214.308594 920.15625 L 215.035156 922.847656 C 215.035156 922.847656 216.171875 923.574219 216.378906 925.125 C 216.585938 926.679688 216.792969 928.441406 216.792969 928.441406 L 217.210938 930.199219 L 219.175781 928.855469 L 220.523438 928.855469 L 220.9375 930.199219 L 218.867188 931.546875 L 218.660156 933.101562 L 221.972656 933.101562 L 221.765625 934.445312 L 220.832031 936 L 223.734375 940.039062 L 226.839844 942.9375 C 226.839844 942.9375 228.910156 944.90625 229.945312 946.042969 C 230.878906 947.183594 233.257812 950.703125 233.257812 950.703125 C 233.257812 950.703125 234.191406 952.050781 235.746094 953.1875 C 237.296875 954.328125 239.992188 955.675781 239.992188 955.675781 L 243.613281 956.8125 C 243.613281 956.8125 246.722656 956.191406 247.238281 956.8125 C 247.859375 957.433594 248.792969 956.605469 249.308594 956.8125 C 249.929688 957.019531 250.65625 955.46875 250.65625 955.46875 L 253.554688 955.261719 L 255.625 953.914062 L 256.972656 951.015625 C 256.972656 951.015625 258.941406 951.015625 259.457031 950.808594 C 260.078125 950.601562 262.769531 949.875 262.769531 949.875 L 265.257812 946.355469 L 265.257812 943.867188 L 265.878906 942.109375 C 265.878906 942.109375 266.292969 940.554688 266.808594 940.039062 C 267.429688 939.417969 267.742188 938.484375 267.742188 938.484375 L 267.949219 931.546875 L 270.847656 929.785156 L 272.917969 929.992188 L 274.472656 928.027344 C 276.027344 926.886719 280.273438 925.953125 280.996094 925.953125 C 281.722656 925.953125 282.136719 925.746094 283.066406 925.746094 C 284 925.746094 284.207031 924.816406 284.207031 924.816406 L 287.519531 923.675781 L 291.351562 923.261719 L 293.421875 923.261719 L 296.113281 923.675781 L 298.394531 923.675781 L 300.359375 924.402344 L 301.914062 924.402344 L 305.746094 926.679688 L 305.953125 924.710938 L 303.882812 924.089844 L 303.46875 922.125 L 301.5 922.332031 L 297.980469 922.332031 L 296.011719 921.917969 L 292.386719 920.363281 L 290.625 917.878906 L 290.417969 914.769531 L 291.144531 912.804688 L 295.390625 907.003906 L 298.082031 903.378906 L 300.359375 901.101562 L 302.121094 899.964844 C 302.121094 899.964844 301.394531 899.238281 301.394531 898.410156 C 301.394531 897.582031 302.328125 895.511719 302.328125 895.511719 L 303.675781 892.613281 L 306.367188 892.402344 L 310.820312 892.402344 L 311.027344 890.851562 L 315.996094 891.472656 L 317.34375 891.472656 L 319.101562 891.886719 L 318.894531 893.027344 L 320.242188 891.265625 L 318.894531 857.300781 C 318.894531 857.300781 317.964844 854.402344 317.964844 853.78125 C 317.964844 853.160156 317.964844 853.160156 318.171875 851.8125 C 318.378906 850.464844 318.585938 848.1875 318.585938 847.566406 C 318.585938 846.945312 320.863281 841.5625 320.863281 841.5625 L 321.070312 840.007812 L 319.929688 838.660156 L 319.929688 837.316406 L 322.417969 838.660156 L 322.625 835.554688 L 325.9375 832.863281 L 328.628906 829.550781 L 328.007812 826.648438 L 330.699219 824.890625 L 331.320312 823.128906 L 332.253906 820.023438 L 333.394531 817.742188 L 333.1875 811.53125 L 333.910156 808.21875 L 334.53125 804.902344 L 335.152344 802.316406 L 333.394531 798.277344 L 330.285156 796 L 329.871094 791.960938 L 329.25 789.265625 L 329.25 785.953125 L 330.390625 785.953125 L 331.113281 788.230469 L 331.113281 789.992188 L 331.839844 791.960938 L 332.773438 794.652344 L 333.703125 796.929688 L 335.050781 796.929688 C 335.050781 796.929688 334.636719 795.585938 334.429688 794.960938 C 334.222656 794.339844 333.808594 791.441406 333.808594 791.441406 L 333.394531 788.335938 L 332.980469 784.710938 L 332.566406 782.019531 C 332.566406 782.019531 332.152344 779.535156 332.152344 778.707031 C 332.152344 777.875 331.738281 776.21875 331.738281 775.597656 C 331.738281 774.976562 331.011719 773.320312 331.011719 773.320312 L 332.566406 769.800781 C 332.566406 769.800781 333.496094 769.386719 333.496094 768.246094 C 333.496094 767.109375 333.289062 763.792969 333.496094 763.277344 C 333.703125 762.65625 334.222656 761.515625 333.496094 760.375 C 332.773438 759.238281 331.425781 754.164062 331.425781 754.164062 L 330.699219 749.296875 L 332.253906 743.496094 L 336.085938 736.144531 L 338.15625 733.453125 L 340.226562 728.277344 L 343.851562 728.277344 L 346.335938 726.308594 L 351.308594 725.894531 L 351.929688 731.070312 L 352.859375 729.726562 L 353.273438 731.484375 L 354.207031 731.070312 L 354.621094 729.414062 L 355.140625 727.449219 L 355.96875 729.933594 L 357.3125 729.726562 L 357.3125 727.449219 L 360.628906 725.167969 L 362.59375 722.476562 L 363.527344 720.199219 L 364.664062 719.058594 L 366.011719 715.4375 L 366.945312 714.8125 L 370.566406 714.398438 C 370.566406 714.398438 371.5 714.8125 371.914062 714.191406 C 372.328125 713.570312 371.914062 712.640625 371.914062 712.640625 L 374.191406 712.433594 L 377.089844 714.398438 L 378.230469 713.46875 L 378.230469 715.230469 L 379.785156 715.4375 L 382.890625 714.710938 L 385.789062 712.949219 L 387.34375 712.019531 L 393.554688 709.535156 L 394.488281 707.773438 L 394.488281 702.800781 L 393.761719 701.042969 L 393.554688 698.351562 L 395.523438 697.210938 L 395.523438 702.078125 L 397.492188 698.972656 L 397.492188 697.003906 L 395.523438 695.035156 L 398.835938 693.484375 L 402.460938 690.375 L 405.359375 688.410156 L 407.847656 685.714844 L 413.644531 683.023438 C 413.644531 683.023438 415.921875 682.300781 417.269531 681.886719 C 418.617188 681.472656 420.167969 680.953125 420.167969 680.953125 L 420.167969 679.398438 L 423.066406 677.847656 C 423.066406 677.847656 423.792969 675.878906 424.207031 675.363281 C 424.621094 674.738281 430.214844 669.355469 434.457031 666.871094 C 438.703125 664.386719 444.917969 659.933594 444.917969 659.933594 L 446.886719 658.378906 L 446.886719 655.066406 C 446.886719 655.066406 453.097656 652.375 454.546875 651.027344 C 456.101562 649.679688 456.515625 647.195312 456.515625 647.195312 L 458.277344 644.710938 L 459.828125 642.742188 L 463.347656 639.84375 L 464.074219 638.289062 L 464.074219 636.738281 L 467.179688 634.25 C 467.179688 634.25 470.289062 628.660156 470.703125 628.039062 C 471.117188 627.417969 476.5 624.414062 476.5 624.414062 L 480.332031 621.308594 L 483.4375 619.753906 L 485.921875 618.617188 L 491.929688 616.335938 L 499.074219 613.4375 C 499.074219 613.4375 503.527344 612.816406 505.289062 612.089844 C 507.046875 611.367188 509.53125 610.539062 510.257812 608.984375 C 510.984375 607.433594 510.878906 603.394531 512.535156 603.394531 C 514.296875 603.394531 516.574219 602.773438 517.195312 602.460938 C 517.816406 602.046875 520.09375 600.492188 520.09375 600.492188 L 521.234375 598.007812 L 521.234375 595.9375 L 519.886719 594.175781 L 527.449219 589.308594 L 529.207031 585.789062 C 529.207031 585.789062 527.863281 586.722656 527.136719 586.929688 C 526.410156 587.136719 524.859375 588.066406 524.859375 588.066406 L 522.375 588.480469 L 522.789062 585.789062 L 525.894531 585.375 C 525.894531 585.375 527.449219 585.375 527.242188 584.238281 C 527.035156 583.097656 525.480469 581.335938 525.167969 580.613281 C 524.753906 579.886719 523.617188 576.988281 523.617188 576.988281 L 524.753906 570.464844 C 524.753906 570.464844 527.242188 565.804688 529.414062 564.871094 C 531.484375 563.941406 535.628906 562.386719 535.628906 562.386719 L 539.667969 562.800781 L 543.910156 559.382812 L 548.777344 558.039062 L 550.4375 555.035156 L 552.09375 553.792969 C 552.09375 553.792969 553.335938 551.101562 554.265625 550.6875 C 555.199219 550.167969 556.648438 549.027344 556.648438 549.027344 L 557.890625 546.128906 L 559.753906 546.542969 L 558.617188 541.574219 L 560.480469 540.226562 L 561.308594 545.199219 L 560.375 548.820312 L 560.167969 551.203125 L 561.410156 552.652344 L 561.410156 554.308594 L 563.378906 552.136719 L 565.035156 550.6875 L 567.730469 552.34375 L 568.972656 550.894531 L 570.421875 544.679688 L 574.148438 544.992188 C 574.148438 544.992188 575.183594 541.988281 576.117188 542.296875 C 577.046875 542.503906 577.773438 540.539062 577.773438 540.539062 L 579.328125 539.8125 L 581.707031 540.019531 L 582.535156 540.953125 L 583.46875 542.503906 L 583.675781 543.125 C 583.882812 541.78125 580.777344 536.085938 581.914062 535.359375 C 581.914062 535.359375 582.019531 532.566406 581.605469 532.152344 C 581.191406 531.734375 579.429688 528.113281 579.429688 528.113281 L 578.703125 525.109375 L 579.015625 522.832031 L 579.121094 521.589844 L 576.945312 518.273438 L 576.945312 515.582031 L 579.949219 511.75 L 577.773438 510.921875 L 575.289062 511.027344 L 574.5625 511.957031 L 573.320312 512.269531 L 572.90625 507.402344 L 573.839844 505.226562 L 574.355469 504.296875 L 573.839844 503.15625 L 570.9375 502.015625 L 569.488281 500.566406 L 568.660156 501.394531 L 568.558594 493.734375 L 571.144531 493.320312 L 572.597656 490.210938 L 573.941406 488.453125 L 574.046875 486.175781 L 573.320312 483.6875 L 572.492188 481.515625 L 571.25 480.6875 L 567.9375 480.375 L 565.035156 479.441406 L 561.621094 479.441406 L 561.621094 478.097656 L 559.03125 476.027344 L 556.753906 475.09375 L 556.027344 473.023438 C 556.027344 473.023438 555.71875 472.296875 555.300781 472.296875 C 554.886719 472.296875 553.4375 470.539062 553.4375 470.539062 C 553.4375 470.539062 554.265625 469.296875 554.679688 468.882812 C 555.09375 468.46875 556.027344 466.601562 556.027344 466.601562 L 555.925781 461.941406 L 560.167969 462.046875 L 560.273438 464.117188 L 562.550781 464.429688 L 561.414062 463.082031 L 561.515625 461.839844 L 563.378906 462.148438 L 563.792969 460.285156 L 565.242188 460.183594 L 565.140625 455.9375 L 573.632812 455.523438 L 573.632812 454.695312 L 577.359375 454.695312 L 578.292969 453.453125 L 578.394531 451.796875 L 578.707031 449.722656 L 577.253906 449.414062 L 576.945312 451.070312 L 576.117188 451.382812 L 574.460938 449.515625 L 572.285156 444.753906 C 572.285156 444.753906 571.457031 449.207031 567.523438 447.34375 C 563.585938 445.480469 563.792969 444.027344 563.792969 444.027344 L 563.378906 441.027344 L 559.445312 438.851562 L 555.097656 438.746094 L 555.199219 433.570312 L 556.648438 431.914062 L 556.546875 430.773438 L 556.441406 428.703125 L 560.167969 426.113281 L 561.828125 424.664062 L 562.136719 422.90625 L 562.65625 422.179688 L 564.933594 421.867188 L 564.621094 419.695312 L 562.550781 419.382812 L 561.621094 418.246094 L 560.6875 416.484375 L 560.582031 415.65625 L 561.929688 413.378906 L 564 417.105469 L 565.863281 417.417969 L 565.863281 419.175781 L 568.351562 419.074219 L 568.039062 420.417969 L 570.214844 420.730469 L 570.523438 423.007812 L 569.800781 424.148438 L 569.28125 425.390625 L 571.351562 425.390625 L 572.804688 424.042969 L 574.875 423.527344 L 576.011719 424.457031 L 578.601562 424.5625 L 576.53125 421.246094 L 575.082031 419.488281 L 575.804688 418.96875 L 578.707031 418.867188 L 578.707031 420.109375 L 580.464844 420.832031 L 581.191406 421.660156 L 581.191406 426.011719 C 581.191406 426.011719 586.265625 430.671875 587.609375 430.671875 C 588.957031 430.671875 592.789062 430.980469 592.789062 430.980469 L 593.925781 429.117188 L 593.925781 427.875 L 595.167969 426.113281 L 596.621094 424.769531 L 599.3125 425.90625 L 599.828125 428.601562 L 599.414062 430.359375 L 601.175781 432.015625 L 600.65625 434.191406 L 600.242188 436.261719 L 601.070312 438.539062 L 600.65625 445.894531 L 600.96875 448.894531 L 602.832031 449.828125 C 602.832031 449.828125 606.558594 449.929688 606.972656 450.242188 C 607.390625 450.550781 609.667969 452.003906 609.667969 452.003906 L 612.773438 452.519531 L 615.363281 453.246094 L 635.96875 453.660156 C 635.96875 453.660156 639.695312 454.902344 640.316406 453.761719 C 641.042969 452.625 642.183594 452.625 643.320312 453.246094 C 644.460938 453.761719 644.460938 454.382812 646.011719 453.96875 C 647.671875 453.554688 648.5 454.488281 648.5 454.488281 L 652.640625 454.382812 L 652.742188 453.453125 L 664.652344 453.347656 L 667.242188 455.625 L 671.382812 455.9375 L 672.109375 456.765625 L 672.003906 459.25 L 674.695312 459.5625 L 674.695312 462.667969 L 672.210938 462.566406 L 667.964844 460.390625 L 667.65625 463.082031 L 669.105469 464.222656 L 669.519531 465.464844 L 669 466.601562 L 667.34375 468.054688 L 667.035156 472.195312 L 663.71875 476.335938 L 662.582031 477.785156 L 660.925781 476.335938 L 659.683594 477.0625 L 659.371094 478.925781 L 658.648438 479.652344 L 658.648438 484.308594 L 655.953125 482.136719 L 654.816406 482.03125 L 654.402344 483.378906 L 653.160156 483.480469 L 651.914062 481.824219 L 651.5 483.171875 L 650.671875 484.621094 L 649.222656 485.761719 L 645.703125 485.65625 L 644.355469 485.761719 L 645.082031 488.246094 L 641.355469 488.96875 L 642.183594 492.90625 L 640.109375 494.976562 L 639.800781 497.152344 L 641.871094 497.875 L 641.457031 500.980469 L 643.632812 503.261719 L 643.527344 505.539062 L 643.425781 506.882812 L 644.667969 508.644531 L 644.5625 513.40625 C 644.5625 513.40625 646.21875 514.546875 646.324219 514.132812 C 646.425781 513.71875 646.324219 509.265625 646.324219 509.265625 L 647.050781 508.128906 C 647.050781 508.128906 648.808594 507.609375 648.914062 508.644531 C 649.015625 509.785156 649.328125 510.40625 649.328125 510.40625 L 649.636719 515.066406 C 649.636719 515.066406 649.949219 515.789062 651.5 516.308594 C 653.160156 516.824219 654.402344 517.445312 655.332031 516.203125 C 656.265625 514.960938 656.679688 515.273438 656.78125 513.613281 C 656.886719 511.957031 655.851562 509.472656 655.851562 509.164062 C 655.851562 508.75 655.746094 507.296875 655.746094 507.296875 L 657.402344 505.125 L 658.855469 502.847656 L 660.304688 502.742188 L 659.785156 500.464844 L 659.269531 498.601562 L 659.371094 494.871094 C 659.371094 494.871094 660.820312 494.5625 661.027344 496.527344 C 661.132812 498.394531 662.683594 497.253906 662.683594 497.253906 L 664.445312 495.804688 L 665.792969 495.390625 L 666.621094 496.113281 L 667.449219 495.183594 L 668.691406 493.421875 L 670.347656 493.734375 L 670.347656 496.320312 L 670.453125 498.082031 L 670.035156 502.328125 L 672.316406 503.984375 L 672.003906 513.304688 L 672.730469 515.375 L 673.453125 517.964844 L 677.90625 527.699219 L 679.148438 531.425781 Z M 679.769531 539.503906 " fill-opacity="1" fill-rule="nonzero"/></g></svg>